<?xml version="1.0" encoding="UTF-8"?>
<svg xmlns="http://www.w3.org/2000/svg" xmlns:xlink="http://www.w3.org/1999/xlink" viewBox="0 0 50 50" width="50px" height="50px">
<g id="surface11819036">
<path style=" stroke:none;fill-rule:nonzero;fill:rgb(60.784316%,34.901962%,71.372551%);fill-opacity:1;" d="M 5 5 C 2.242188 5 0 7.242188 0 10 L 0 39 C 0 41.757812 2.242188 44 5 44 L 21 44 C 22.652344 44 24 45.347656 24 47 L 24 10 C 24 7.242188 21.757812 5 19 5 Z M 31 5 C 28.242188 5 26 7.242188 26 10 L 26 47 C 26 45.347656 27.347656 44 29 44 L 45 44 C 47.757812 44 50 41.757812 50 39 L 50 10 C 50 7.242188 47.757812 5 45 5 Z M 31 5 "/>
</g>
</svg>
